<svg xmlns="http://www.w3.org/2000/svg" width="810" height="704" xmlns:xlink="http://www.w3.org/1999/xlink" joint-selector="svg" id="v-2" class="waiting"><defs joint-selector="defs" class="waiting"><marker id="v-21429980022" orient="auto" overflow="visible" markerUnits="userSpaceOnUse" class="waiting"><path id="v-185" stroke="black" fill="none" transform="rotate(180)" d="m 10,-6 l -10,6 10,6" stroke-width="1.2" class="waiting"/></marker><marker id="v-2-933205445" orient="auto" overflow="visible" markerUnits="userSpaceOnUse" class="waiting"><path id="v-203" stroke="black" fill="black" transform="rotate(180)" d="m 12,-6 l -12,6 12,6 z" stroke-width="1.2" class="waiting"/></marker><marker id="v-2-479506292" orient="auto" overflow="visible" markerUnits="userSpaceOnUse" class="waiting"><path id="v-430" stroke="black" fill="none" transform="rotate(180)" d="m 10,-6 l 0,12" stroke-width="1.2" class="waiting"/></marker></defs><g class="joint-layers waiting" joint-selector="layers" transform="matrix(1,0,0,1,-81,-74)"><g class="joint-back-layer waiting" joint-selector="back"/><g class="joint-cells-layer joint-viewport waiting" joint-selector="cells"><g model-id="e61282ee-a0fc-4215-b9b6-85edd778423b" data-type="Container" id="j_382" class="joint-cell joint-type-container joint-element joint-theme-default waiting" transform="translate(671,472)"><g id="v-2185" class="waiting"><rect class="boundary waiting" id="v-2188" fill="rgb(242,242,242)" height="230" rx="100" ry="40" stroke="black" stroke-dasharray="10,5,4,4" stroke-width="2" width="210" style=""/><circle class="element actorSymbol waiting" id="v-2186" cx="40" cy="40" fill="#FAC667" r="40" stroke="black" stroke-width="2" transform="translate(-20, -20)" style=""/><path class="actorDecorator waiting" id="v-2189" d="m -11 -5 62 0" fill="none" stroke="black" stroke-width="1.5" style=""/><text class="content waiting" id="v-2187" font-size="12" xml:space="preserve" y="0.8em" fill="#000000" font-family="Arial, helvetica, sans-serif" text-anchor="middle" transform="matrix(1,0,0,1,20,14.399999618530273)"><tspan class="v-line waiting" dy="0">Bot</tspan></text></g></g><g model-id="62b24269-fa9f-4260-9f3d-c8bb6aed034a" data-type="Container" id="j_379" class="joint-cell joint-type-container joint-element joint-theme-default waiting" transform="translate(200,633)"><g id="v-2158" class="waiting"><rect class="boundary waiting" id="v-2161" fill="rgb(242,242,242)" height="130" rx="100" ry="40" stroke="black" stroke-dasharray="10,5,4,4" stroke-width="2" width="219.5" style=""/><circle class="element actorSymbol waiting" id="v-2159" cx="40" cy="40" fill="#FAC667" r="40" stroke="black" stroke-width="2" transform="translate(-20, -20)" style=""/><path class="actorDecorator waiting" id="v-2162" d="m -11 45 q 30 15 62 0" fill="none" stroke="black" stroke-width="1.5" style=""/><text class="content waiting" id="v-2160" font-size="12" xml:space="preserve" y="0.8em" fill="#000000" font-family="Arial, helvetica, sans-serif" text-anchor="middle" transform="matrix(1,0,0,1,20,14.399999618530273)"><tspan class="v-line waiting" dy="0">Tutor</tspan></text></g></g><g model-id="7be87fcd-6440-4086-86c9-22d0a5a799eb" data-type="Container" id="j_367" class="joint-cell joint-type-container joint-element joint-theme-default waiting" transform="translate(111,104)"><g id="v-2059" class="waiting"><rect class="boundary waiting" id="v-2062" fill="rgb(242,242,242)" height="336.8000030517578" rx="100" ry="40" stroke="black" stroke-dasharray="10,5,4,4" stroke-width="2" width="641.8321990966797" style=""/><circle class="element actorSymbol waiting" id="v-2060" cx="40" cy="40" fill="#FAC667" r="40" stroke="black" stroke-width="2" transform="translate(-20, -20)" style=""/><path class="actorDecorator waiting" id="v-2063" d="m -11 45 q 30 15 62 0" fill="none" stroke="black" stroke-width="1.5" style=""/><text class="content waiting" id="v-2061" font-size="12" xml:space="preserve" y="0.8em" fill="#000000" font-family="Arial, helvetica, sans-serif" text-anchor="middle" transform="matrix(1,0,0,1,20,8.399999618530273)"><tspan class="v-line waiting" dy="0">Estudiante</tspan><tspan dy="1em" x="0" class="v-line waiting">DCC</tspan></text></g></g><g model-id="62afd2d6-e973-4d85-8557-124d4b0368e6" data-type="DependencyLink" id="j_401" class="joint-cell joint-type-dependencylink joint-link joint-theme-default waiting"><path class="c-connection-wrap waiting" joint-selector="connection-wrap" id="v-2296" fill="none" stroke="rgba(190, 190, 190, 0)" stroke-linecap="round" stroke-width="30" d="M 498.57 512.92 L 733 548.74"/><path joint-selector="line" id="v-2295" fill="none" stroke="black" stroke-width="1" d="M 498.57 512.92 L 733 548.74" class="waiting"/><path joint-selector="label" id="v-2297" d="m 0,-10 l 0,20 4,0 c 10,0, 10 -20, 0,-20 l -4,0" fill="white" stroke="black" stroke-width="2" transform="matrix(0.9885271787643433,0.1510431319475174,-0.1510431319475174,0.9885271787643433,615.7999877929688,530.7999877929688)" class="waiting"/></g><g model-id="729f00c1-30e5-43f9-8772-e3fce51169de" data-type="DependencyLink" id="j_400" class="joint-cell joint-type-dependencylink joint-link joint-theme-default waiting"><path class="c-connection-wrap waiting" joint-selector="connection-wrap" id="v-2293" fill="none" stroke="rgba(190, 190, 190, 0)" stroke-linecap="round" stroke-width="30" d="M 366.38 411.8 L 437.92 487.4"/><path joint-selector="line" id="v-2292" fill="none" stroke="black" stroke-width="1" d="M 366.38 411.8 L 437.92 487.4" class="waiting"/><path joint-selector="label" id="v-2294" d="m 0,-10 l 0,20 4,0 c 10,0, 10 -20, 0,-20 l -4,0" fill="white" stroke="black" stroke-width="2" transform="matrix(0.6873341798782349,0.7263413667678833,-0.7263413667678833,0.6873341798782349,402.1000061035156,449.6000061035156)" class="waiting"/></g><g model-id="5231431a-b919-4d2d-9054-4cb5be095efc" data-type="DependencyLink" id="j_398" class="joint-cell joint-type-dependencylink joint-link joint-theme-default waiting"><path class="c-connection-wrap waiting" joint-selector="connection-wrap" id="v-2282" fill="none" stroke="rgba(190, 190, 190, 0)" stroke-linecap="round" stroke-width="30" d="M 424.23 563.8 L 733 558.39"/><path joint-selector="line" id="v-2281" fill="none" stroke="black" stroke-width="1" d="M 424.23 563.8 L 733 558.39" class="waiting"/><path joint-selector="label" id="v-2283" d="m 0,-10 l 0,20 4,0 c 10,0, 10 -20, 0,-20 l -4,0" fill="white" stroke="black" stroke-width="2" transform="matrix(0.9998465180397034,-0.01751844212412834,0.01751844212412834,0.9998465180397034,578.5999755859375,561.0999755859375)" class="waiting"/></g><g model-id="3eb28506-be74-4ebe-86dc-2f9514856b5d" data-type="DependencyLink" id="j_397" class="joint-cell joint-type-dependencylink joint-link joint-theme-default waiting"><path class="c-connection-wrap waiting" joint-selector="connection-wrap" id="v-2279" fill="none" stroke="rgba(190, 190, 190, 0)" stroke-linecap="round" stroke-width="30" d="M 245.6 405.8 L 372.61 545.4"/><path joint-selector="line" id="v-2278" fill="none" stroke="black" stroke-width="1" d="M 245.6 405.8 L 372.61 545.4" class="waiting"/><path joint-selector="label" id="v-2280" d="m 0,-10 l 0,20 4,0 c 10,0, 10 -20, 0,-20 l -4,0" fill="white" stroke="black" stroke-width="2" transform="matrix(0.6729654669761658,0.739673912525177,-0.739673912525177,0.6729654669761658,309.1000061035156,475.6000061035156)" class="waiting"/></g><g model-id="738b3bf1-0449-4f55-a216-737f8c2f0b35" data-type="DependencyLink" id="j_395" class="joint-cell joint-type-dependencylink joint-link joint-theme-default waiting"><path class="c-connection-wrap waiting" joint-selector="connection-wrap" id="v-2268" fill="none" stroke="rgba(190, 190, 190, 0)" stroke-linecap="round" stroke-width="30" d="M 580 738.23 L 700.56 692"/><path joint-selector="line" id="v-2267" fill="none" stroke="black" stroke-width="1" d="M 580 738.23 L 700.56 692" class="waiting"/><path joint-selector="label" id="v-2269" d="m 0,-10 l 0,20 4,0 c 10,0, 10 -20, 0,-20 l -4,0" fill="white" stroke="black" stroke-width="2" transform="matrix(0.9337063431739807,-0.3580397367477417,0.3580397367477417,0.9337063431739807,640.2999877929688,715.0999755859375)" class="waiting"/></g><g model-id="810755e9-9696-4a51-ba39-2f3e96f782bb" data-type="DependencyLink" id="j_394" class="joint-cell joint-type-dependencylink joint-link joint-theme-default waiting"><path class="c-connection-wrap waiting" joint-selector="connection-wrap" id="v-2265" fill="none" stroke="rgba(190, 190, 190, 0)" stroke-linecap="round" stroke-width="30" d="M 295 734.92 L 516 748.53"/><path joint-selector="line" id="v-2264" fill="none" stroke="black" stroke-width="1" d="M 295 734.92 L 516 748.53" class="waiting"/><path joint-selector="label" id="v-2266" d="m 0,-10 l 0,20 4,0 c 10,0, 10 -20, 0,-20 l -4,0" fill="white" stroke="black" stroke-width="2" transform="matrix(0.9981091022491455,0.061467260122299194,-0.061467260122299194,0.9981091022491455,405.5,741.7000122070312)" class="waiting"/></g><g model-id="256ac30b-ce15-4c68-96bf-f7f07ebbc7ab" data-type="DependencyLink" id="j_392" class="joint-cell joint-type-dependencylink joint-link joint-theme-default waiting"><path class="c-connection-wrap waiting" joint-selector="connection-wrap" id="v-2254" fill="none" stroke="rgba(190, 190, 190, 0)" stroke-linecap="round" stroke-width="30" d="M 568.33 675.29 L 700 674.34"/><path joint-selector="line" id="v-2253" fill="none" stroke="black" stroke-width="1" d="M 568.33 675.29 L 700 674.34" class="waiting"/><path joint-selector="label" id="v-2255" d="m 0,-10 l 0,20 4,0 c 10,0, 10 -20, 0,-20 l -4,0" fill="white" stroke="black" stroke-width="2" transform="matrix(0.9999739527702332,-0.0072149732150137424,0.0072149732150137424,0.9999739527702332,634.2000122070312,674.7999877929688)" class="waiting"/></g><g model-id="fcfb99aa-6213-48d6-a17c-c0def5d09409" data-type="DependencyLink" id="j_391" class="joint-cell joint-type-dependencylink joint-link joint-theme-default waiting"><path class="c-connection-wrap waiting" joint-selector="connection-wrap" id="v-2251" fill="none" stroke="rgba(190, 190, 190, 0)" stroke-linecap="round" stroke-width="30" d="M 409.5 689.04 L 509.67 678.57"/><path joint-selector="line" id="v-2250" fill="none" stroke="black" stroke-width="1" d="M 409.5 689.04 L 509.67 678.57" class="waiting"/><path joint-selector="label" id="v-2252" d="m 0,-10 l 0,20 4,0 c 10,0, 10 -20, 0,-20 l -4,0" fill="white" stroke="black" stroke-width="2" transform="matrix(0.994581937789917,-0.10395582765340805,0.10395582765340805,0.994581937789917,459.6000061035156,683.7999877929688)" class="waiting"/></g><g model-id="c15e39bc-4f92-46e9-9e45-a72ca28b6828" data-type="DependencyLink" id="j_389" class="joint-cell joint-type-dependencylink joint-link joint-theme-default waiting"><path class="c-connection-wrap waiting" joint-selector="connection-wrap" id="v-2240" fill="none" stroke="rgba(190, 190, 190, 0)" stroke-linecap="round" stroke-width="30" d="M 587.7 510.5 L 725.4 597"/><path joint-selector="line" id="v-2239" fill="none" stroke="black" stroke-width="1" d="M 587.7 510.5 L 725.4 597" class="waiting"/><path joint-selector="label" id="v-2241" d="m 0,-10 l 0,20 4,0 c 10,0, 10 -20, 0,-20 l -4,0" fill="white" stroke="black" stroke-width="2" transform="matrix(0.8467869162559509,0.5319322347640991,-0.5319322347640991,0.8467869162559509,656.5,553.7999877929688)" class="waiting"/></g><g model-id="75cced13-b980-4c52-b55b-769f310cc7c9" data-type="DependencyLink" id="j_388" class="joint-cell joint-type-dependencylink joint-link joint-theme-default waiting"><path class="c-connection-wrap waiting" joint-selector="connection-wrap" id="v-2237" fill="none" stroke="rgba(190, 190, 190, 0)" stroke-linecap="round" stroke-width="30" d="M 493.05 430.8 L 552.59 484.5"/><path joint-selector="line" id="v-2236" fill="none" stroke="black" stroke-width="1" d="M 493.05 430.8 L 552.59 484.5" class="waiting"/><path joint-selector="label" id="v-2238" d="m 0,-10 l 0,20 4,0 c 10,0, 10 -20, 0,-20 l -4,0" fill="white" stroke="black" stroke-width="2" transform="matrix(0.7425867319107056,0.669749915599823,-0.669749915599823,0.7425867319107056,522.7999877929688,457.6000061035156)" class="waiting"/></g><g model-id="2d7a91ce-5fd4-4cf3-a558-8d1e31f20dca" data-type="Goal" id="j_368" class="joint-cell joint-type-goal joint-element joint-theme-default waiting" fill="#ffffff" stroke="none" transform="translate(357,118)"><g class="scalable waiting" transform="scale(0.9215384850135216,1.7433334350585938)"><rect class="element waiting" id="v-2070" fill="rgb(205,254,205)" height="30" rx="20" stroke="black" stroke-width="2" vector-effect="non-scaling-stroke" width="130"/></g><text class="content waiting" id="v-2071" font-size="12" xml:space="preserve" y="0.8em" font-weight="bold" fill="#000000" text-anchor="middle" font-family="Arial, helvetica, sans-serif" transform="matrix(1,0,0,1,59.900001525878906,8.600000381469727)"><tspan class="v-line waiting" dy="0">Proceso de</tspan><tspan dy="1em" x="0" class="v-line waiting">Intervención</tspan><tspan dy="1em" x="0" class="v-line waiting">establecido</tspan></text></g><g model-id="92b3a49f-d260-413a-a58b-883422a80bfc" data-type="Goal" id="j_369" class="joint-cell joint-type-goal joint-element joint-theme-default waiting" fill="#ffffff" stroke="none" transform="translate(271,227)"><g class="scalable waiting" transform="scale(0.6923076923076923,1.1666666666666667)"><rect class="element waiting" id="v-2078" fill="rgb(205,254,205)" height="30" rx="20" stroke="black" stroke-width="2" vector-effect="non-scaling-stroke" width="130"/></g><text class="content waiting" id="v-2079" font-size="12" xml:space="preserve" y="0.8em" font-weight="bold" fill="#000000" text-anchor="middle" font-family="Arial, helvetica, sans-serif" transform="matrix(1,0,0,1,45,5.900000095367432)"><tspan class="v-line waiting" dy="0">Ser</tspan><tspan dy="1em" x="0" class="v-line waiting">intervenido</tspan></text></g><g model-id="fb5dfef6-89a0-4200-b8dc-7f6652d830cc" data-type="Goal" id="j_370" class="joint-cell joint-type-goal joint-element joint-theme-default waiting" fill="#ffffff" stroke="none" transform="translate(514,141)"><g class="scalable waiting" transform="scale(0.6923076923076923,1.1666666666666667)"><rect class="element waiting" id="v-2086" fill="rgb(205,254,205)" height="30" rx="20" stroke="black" stroke-width="2" vector-effect="non-scaling-stroke" width="130"/></g><text class="content waiting" id="v-2087" font-size="12" xml:space="preserve" y="0.8em" font-weight="bold" fill="#000000" text-anchor="middle" font-family="Arial, helvetica, sans-serif" transform="matrix(1,0,0,1,45,5.900000095367432)"><tspan class="v-line waiting" dy="0">No ser</tspan><tspan dy="1em" x="0" class="v-line waiting">intervenido</tspan></text></g><g model-id="8610cb10-f430-47dd-beab-78106fabac3a" data-type="Task" id="j_371" class="joint-cell joint-type-task joint-element joint-theme-default waiting" fill="#ffffff" stroke="none" transform="translate(168,346)"><g class="scalable waiting" transform="scale(0.7753846388596755,1.6611111958821614)"><polygon class="element waiting" id="v-2094" fill="#BDBDBD" height="36" points="0,18 15,0 115,0 130,18 115,36 15,36" stroke="black" stroke-width="2" vector-effect="non-scaling-stroke" width="130"/></g><text class="content waiting" id="v-2095" font-size="12" xml:space="preserve" y="0.8em" font-weight="bold" text-anchor="middle" fill="#000000" font-family="Arial, helvetica, sans-serif" transform="matrix(1,0,0,1,50.400001525878906,12.300000190734863)"><tspan class="v-line waiting" dy="0">llenar</tspan><tspan dy="1em" x="0" class="v-line waiting">información de</tspan><tspan dy="1em" x="0" class="v-line waiting">tutor</tspan></text></g><g model-id="9d2bd1f2-50a6-4982-b933-9b8e16888309" data-type="Task" id="j_372" class="joint-cell joint-type-task joint-element joint-theme-default waiting" fill="#ffffff" stroke="none" transform="translate(292,359)"><g class="scalable waiting" transform="scale(0.7600000234750601,1.466666751437717)"><polygon class="element waiting" id="v-2102" fill="#BDBDBD" height="36" points="0,18 15,0 115,0 130,18 115,36 15,36" stroke="black" stroke-width="2" vector-effect="non-scaling-stroke" width="130"/></g><text class="content waiting" id="v-2103" font-size="12" xml:space="preserve" y="0.8em" font-weight="bold" text-anchor="middle" fill="#000000" font-family="Arial, helvetica, sans-serif" transform="matrix(1,0,0,1,49.400001525878906,8.800000190734863)"><tspan class="v-line waiting" dy="0">Establecer</tspan><tspan dy="1em" x="0" class="v-line waiting">tolerancia para</tspan><tspan dy="1em" x="0" class="v-line waiting">atrasos</tspan></text></g><g model-id="dea4a286-34eb-42b8-b559-770848a00b12" data-type="Task" id="j_373" class="joint-cell joint-type-task joint-element joint-theme-default waiting" fill="#ffffff" stroke="none" transform="translate(412,371)"><g class="scalable waiting" transform="scale(0.736923100398137,1.6611111958821614)"><polygon class="element waiting" id="v-2110" fill="#BDBDBD" height="36" points="0,18 15,0 115,0 130,18 115,36 15,36" stroke="black" stroke-width="2" vector-effect="non-scaling-stroke" width="130"/></g><text class="content waiting" id="v-2111" font-size="12" xml:space="preserve" y="0.8em" font-weight="bold" text-anchor="middle" fill="#000000" font-family="Arial, helvetica, sans-serif" transform="matrix(1,0,0,1,47.900001525878906,12.300000190734863)"><tspan class="v-line waiting" dy="0">Asociar un</tspan><tspan dy="1em" x="0" class="v-line waiting">recordatorio</tspan><tspan dy="1em" x="0" class="v-line waiting">existente</tspan></text></g><g model-id="81c01c06-f6df-4acb-bf26-d1d37479219d" data-type="Task" id="j_374" class="joint-cell joint-type-task joint-element joint-theme-default waiting" fill="#ffffff" stroke="none" transform="translate(519,337)"><g class="scalable waiting" transform="scale(0.8061538696289062,1.5500000847710504)"><polygon class="element waiting" id="v-2118" fill="#BDBDBD" height="36" points="0,18 15,0 115,0 130,18 115,36 15,36" stroke="black" stroke-width="2" vector-effect="non-scaling-stroke" width="130"/></g><text class="content waiting" id="v-2119" font-size="12" xml:space="preserve" y="0.8em" font-weight="bold" text-anchor="middle" fill="#000000" font-family="Arial, helvetica, sans-serif" transform="matrix(1,0,0,1,52.400001525878906,16.299999237060547)"><tspan class="v-line waiting" dy="0">Llenar input de</tspan><tspan dy="1em" x="0" class="v-line waiting">verificación</tspan></text></g><g model-id="b570deb9-48e8-41e2-945b-d3b08c8450a9" data-type="Quality" id="j_375" class="joint-cell joint-type-quality joint-element joint-theme-default waiting" fill="#ffffff" stroke="none" transform="translate(636,189)"><g class="scalable waiting" transform="scale(0.932096350872083,1.1382373670242087)"><path class="element waiting" id="v-2126" d="m 60.637955,-4.0358 c 17.5174,2.2042 29.9953,-10.69554 41.892705,-4.7858 22.34142,10.8714 11.2203,43.7743 -2.25,47.7322 -8.276505,2.9084 -13.960205,5.1934 -46.142805,-2.1786 -6.7454,-2.2317 -28.2652,6.0799 -35.4643,4.7143 C 9.072156,39.4809 6.491756,33.7693 3.744956,28.482 c -6.3069,-15.1266 -2.5738,-28.0439 7.981099,-34.7856 10.5549,-6.74179 27.9316,-7.30796 48.9119,2.2678 z" fill="#75C6FF" stroke="black" stroke-width="2" vector-effect="non-scaling-stroke" transform="matrix(1,0,0,1,-0.699999988079071,11.300000190734863)"/></g><text class="content waiting" id="v-2127" font-size="12" xml:space="preserve" y="0.8em" font-weight="bold" text-anchor="middle" fill="#000000" font-family="Arial, helvetica, sans-serif" transform="matrix(1,0,0,1,53.400001525878906,25.5)"><tspan class="v-line waiting" dy="0">Individualidad</tspan></text></g><g model-id="e84d2bd9-98ca-4f73-b14b-e377522a034b" data-type="Quality" id="j_376" class="joint-cell joint-type-quality joint-element joint-theme-default waiting" fill="#ffffff" stroke="none" transform="translate(643,267)"><g class="scalable waiting" transform="scale(0.7852377172326537,1.0380876530855685)"><path class="element waiting" id="v-2134" d="m 60.637955,-4.0358 c 17.5174,2.2042 29.9953,-10.69554 41.892705,-4.7858 22.34142,10.8714 11.2203,43.7743 -2.25,47.7322 -8.276505,2.9084 -13.960205,5.1934 -46.142805,-2.1786 -6.7454,-2.2317 -28.2652,6.0799 -35.4643,4.7143 C 9.072156,39.4809 6.491756,33.7693 3.744956,28.482 c -6.3069,-15.1266 -2.5738,-28.0439 7.981099,-34.7856 10.5549,-6.74179 27.9316,-7.30796 48.9119,2.2678 z" fill="#75C6FF" stroke="black" stroke-width="2" vector-effect="non-scaling-stroke" transform="matrix(1,0,0,1,-0.699999988079071,11.300000190734863)"/></g><text class="content waiting" id="v-2135" font-size="12" xml:space="preserve" y="0.8em" font-weight="bold" text-anchor="middle" fill="#000000" font-family="Arial, helvetica, sans-serif" transform="matrix(1,0,0,1,45,23.600000381469727)"><tspan class="v-line waiting" dy="0">Privacidad</tspan></text></g><g model-id="98406b24-2670-46fb-a5e7-6b859d398cf2" data-type="Quality" id="j_377" class="joint-cell joint-type-quality joint-element joint-theme-default waiting" fill="#ffffff" stroke="none" transform="translate(203,136)"><g class="scalable waiting" transform="scale(0.7852377172326537,1.0380876530855685)"><path class="element waiting" id="v-2142" d="m 60.637955,-4.0358 c 17.5174,2.2042 29.9953,-10.69554 41.892705,-4.7858 22.34142,10.8714 11.2203,43.7743 -2.25,47.7322 -8.276505,2.9084 -13.960205,5.1934 -46.142805,-2.1786 -6.7454,-2.2317 -28.2652,6.0799 -35.4643,4.7143 C 9.072156,39.4809 6.491756,33.7693 3.744956,28.482 c -6.3069,-15.1266 -2.5738,-28.0439 7.981099,-34.7856 10.5549,-6.74179 27.9316,-7.30796 48.9119,2.2678 z" fill="#75C6FF" stroke="black" stroke-width="2" vector-effect="non-scaling-stroke" transform="matrix(1,0,0,1,-0.699999988079071,11.300000190734863)"/></g><text class="content waiting" id="v-2143" font-size="12" xml:space="preserve" y="0.8em" font-weight="bold" text-anchor="middle" fill="#000000" font-family="Arial, helvetica, sans-serif" transform="matrix(1,0,0,1,45,23.600000381469727)"><tspan class="v-line waiting" dy="0">Seguridad</tspan></text></g><g model-id="d1965951-478f-4c5a-a64e-473fc009effb" data-type="Quality" id="j_378" class="joint-cell joint-type-quality joint-element joint-theme-default waiting" fill="#ffffff" stroke="none" transform="translate(111,213)"><g class="scalable waiting" transform="scale(1.0542838527048262,1.0344199636058913)"><path class="element waiting" id="v-2150" d="m 60.637955,-4.0358 c 17.5174,2.2042 29.9953,-10.69554 41.892705,-4.7858 22.34142,10.8714 11.2203,43.7743 -2.25,47.7322 -8.276505,2.9084 -13.960205,5.1934 -46.142805,-2.1786 -6.7454,-2.2317 -28.2652,6.0799 -35.4643,4.7143 C 9.072156,39.4809 6.491756,33.7693 3.744956,28.482 c -6.3069,-15.1266 -2.5738,-28.0439 7.981099,-34.7856 10.5549,-6.74179 27.9316,-7.30796 48.9119,2.2678 z" fill="#75C6FF" stroke="black" stroke-width="2" vector-effect="non-scaling-stroke" transform="matrix(1,0,0,1,-0.699999988079071,11.300000190734863)"/></g><text class="content waiting" id="v-2151" font-size="12" xml:space="preserve" y="0.8em" font-weight="bold" text-anchor="middle" fill="#000000" font-family="Arial, helvetica, sans-serif" transform="matrix(1,0,0,1,60.400001525878906,23.600000381469727)"><tspan class="v-line waiting" dy="0">Parametrización</tspan></text></g><g model-id="9d443672-54e0-4e66-adee-6ce34f843895" data-type="Task" id="j_380" class="joint-cell joint-type-task joint-element joint-theme-default waiting" fill="#ffffff" stroke="none" transform="translate(314.5,676)"><g class="scalable waiting" transform="scale(0.7307692307692307,1)"><polygon class="element waiting" id="v-2169" fill="#BDBDBD" height="36" points="0,18 15,0 115,0 130,18 115,36 15,36" stroke="black" stroke-width="2" vector-effect="non-scaling-stroke" width="130"/></g><text class="content waiting" id="v-2170" font-size="12" xml:space="preserve" y="0.8em" font-weight="bold" text-anchor="middle" fill="#000000" font-family="Arial, helvetica, sans-serif" transform="matrix(1,0,0,1,47.5,6.400000095367432)"><tspan class="v-line waiting" dy="0">contactarse</tspan><tspan dy="1em" x="0" class="v-line waiting">con el alumno</tspan></text></g><g model-id="9f47ad28-a25e-4368-8293-2abbc8b0dea6" data-type="Task" id="j_381" class="joint-cell joint-type-task joint-element joint-theme-default waiting" fill="#ffffff" stroke="none" transform="translate(200,714)"><g class="scalable waiting" transform="scale(0.7307692307692307,1)"><polygon class="element waiting" id="v-2177" fill="#BDBDBD" height="36" points="0,18 15,0 115,0 130,18 115,36 15,36" stroke="black" stroke-width="2" vector-effect="non-scaling-stroke" width="130"/></g><text class="content waiting" id="v-2178" font-size="12" xml:space="preserve" y="0.8em" font-weight="bold" text-anchor="middle" fill="#000000" font-family="Arial, helvetica, sans-serif" transform="matrix(1,0,0,1,47.5,6.400000095367432)"><tspan class="v-line waiting" dy="0">Aceptar ser</tspan><tspan dy="1em" x="0" class="v-line waiting">tutor</tspan></text></g><g model-id="e3252d63-7a2e-49d7-9c0c-da205cc8917c" data-type="Task" id="j_383" class="joint-cell joint-type-task joint-element joint-theme-default waiting" fill="#ffffff" stroke="none" transform="translate(733,532)"><g class="scalable waiting" transform="scale(0.8715384850135216,1.4111111958821614)"><polygon class="element waiting" id="v-2196" fill="#BDBDBD" height="36" points="0,18 15,0 115,0 130,18 115,36 15,36" stroke="black" stroke-width="2" vector-effect="non-scaling-stroke" width="130"/></g><text class="content waiting" id="v-2197" font-size="12" xml:space="preserve" y="0.8em" font-weight="bold" text-anchor="middle" fill="#000000" font-family="Arial, helvetica, sans-serif" transform="matrix(1,0,0,1,56.70000076293945,7.800000190734863)"><tspan class="v-line waiting" dy="0">Alamacenar</tspan><tspan dy="1em" x="0" class="v-line waiting">preferencias del</tspan><tspan dy="1em" x="0" class="v-line waiting">usuario</tspan></text></g><g model-id="fcd50980-2947-4b2f-8d75-acace041fbc2" data-type="Task" id="j_384" class="joint-cell joint-type-task joint-element joint-theme-default waiting" fill="#ffffff" stroke="none" transform="translate(700,656)"><g class="scalable waiting" transform="scale(0.7307692307692307,1)"><polygon class="element waiting" id="v-2204" fill="#BDBDBD" height="36" points="0,18 15,0 115,0 130,18 115,36 15,36" stroke="black" stroke-width="2" vector-effect="non-scaling-stroke" width="130"/></g><text class="content waiting" id="v-2205" font-size="12" xml:space="preserve" y="0.8em" font-weight="bold" text-anchor="middle" fill="#000000" font-family="Arial, helvetica, sans-serif" transform="matrix(1,0,0,1,47.5,6.400000095367432)"><tspan class="v-line waiting" dy="0">Notificar al</tspan><tspan dy="1em" x="0" class="v-line waiting">tutor</tspan></text></g><g model-id="1d979928-8d00-44e2-ad59-e07c7176aae1" data-type="Task" id="j_385" class="joint-cell joint-type-task joint-element joint-theme-default waiting" fill="#ffffff" stroke="none" transform="translate(710,597)"><g class="scalable waiting" transform="scale(0.8100000234750601,1.3000000847710504)"><polygon class="element waiting" id="v-2212" fill="#BDBDBD" height="36" points="0,18 15,0 115,0 130,18 115,36 15,36" stroke="black" stroke-width="2" vector-effect="non-scaling-stroke" width="130"/></g><text class="content waiting" id="v-2213" font-size="12" xml:space="preserve" y="0.8em" font-weight="bold" text-anchor="middle" fill="#000000" font-family="Arial, helvetica, sans-serif" transform="matrix(1,0,0,1,52.70000076293945,5.800000190734863)"><tspan class="v-line waiting" dy="0">Entregar</tspan><tspan dy="1em" x="0" class="v-line waiting">información del</tspan><tspan dy="1em" x="0" class="v-line waiting">usuario</tspan></text></g><g model-id="4787e9e2-fa58-4fdf-89c3-7c60337ec029" data-type="Task" id="j_386" class="joint-cell joint-type-task joint-element joint-theme-default waiting" fill="#ffffff" stroke="none" transform="translate(760,472)"><g class="scalable waiting" transform="scale(0.7307692307692307,1)"><polygon class="element waiting" id="v-2220" fill="#BDBDBD" height="36" points="0,18 15,0 115,0 130,18 115,36 15,36" stroke="black" stroke-width="2" vector-effect="non-scaling-stroke" width="130"/></g><text class="content waiting" id="v-2221" font-size="12" xml:space="preserve" y="0.8em" font-weight="bold" text-anchor="middle" fill="#000000" font-family="Arial, helvetica, sans-serif" transform="matrix(1,0,0,1,47.5,0.4000000059604645)"><tspan class="v-line waiting" dy="0">Almacenar</tspan><tspan dy="1em" x="0" class="v-line waiting">respuestas del</tspan><tspan dy="1em" x="0" class="v-line waiting">usuario</tspan></text></g><g model-id="5e3168d4-588e-4939-8364-7273aa3ae6d8" data-type="Resource" id="j_387" class="joint-cell joint-type-resource joint-element joint-theme-default waiting" fill="#ffffff" stroke="none" transform="translate(522,480)"><g class="scalable waiting" transform="scale(0.6923076923076923,1.1666666666666667)"><rect class="element waiting" id="v-2228" fill="#F9FAAD" height="30" rx="0" stroke="black" stroke-width="2" vector-effect="non-scaling-stroke" width="130"/></g><text class="content waiting" id="v-2229" font-size="12" xml:space="preserve" y="0.8em" font-weight="bold" fill="#000000" text-anchor="middle" font-family="Arial, helvetica, sans-serif" transform="matrix(1,0,0,1,45,5.900000095367432)"><tspan class="v-line waiting" dy="0">Recordatrios</tspan><tspan dy="1em" x="0" class="v-line waiting">del Usario</tspan></text></g><g model-id="a8350d5b-9e68-4777-816c-3331a18a9dbe" data-type="Goal" id="j_390" class="joint-cell joint-type-goal joint-element joint-theme-default waiting" fill="#ffffff" stroke="none" transform="translate(494,658)"><g class="scalable waiting" transform="scale(0.6923076923076923,1.1666666666666667)"><rect class="element waiting" id="v-2242" fill="rgb(205,254,205)" height="30" rx="20" stroke="black" stroke-width="2" vector-effect="non-scaling-stroke" width="130"/></g><text class="content waiting" id="v-2243" font-size="12" xml:space="preserve" y="0.8em" font-weight="bold" fill="#000000" text-anchor="middle" font-family="Arial, helvetica, sans-serif" transform="matrix(1,0,0,1,45,5.900000095367432)"><tspan class="v-line waiting" dy="0">Tutor</tspan><tspan dy="1em" x="0" class="v-line waiting">Notificado</tspan></text></g><g model-id="c351ac9d-1501-46e8-a99c-0fcf2061ea45" data-type="Resource" id="j_393" class="joint-cell joint-type-resource joint-element joint-theme-default waiting" fill="#ffffff" stroke="none" transform="translate(503,733)"><g class="scalable waiting" transform="scale(0.6923076923076923,1.1666666666666667)"><rect class="element waiting" id="v-2256" fill="#F9FAAD" height="30" rx="0" stroke="black" stroke-width="2" vector-effect="non-scaling-stroke" width="130"/></g><text class="content waiting" id="v-2257" font-size="12" xml:space="preserve" y="0.8em" font-weight="bold" fill="#000000" text-anchor="middle" font-family="Arial, helvetica, sans-serif" transform="matrix(1,0,0,1,45,5.900000095367432)"><tspan class="v-line waiting" dy="0">Asociación</tspan><tspan dy="1em" x="0" class="v-line waiting">como tutor</tspan></text></g><g model-id="e9b92012-21d5-4dc9-8668-df9cfd493bae" data-type="Task" id="j_396" class="joint-cell joint-type-task joint-element joint-theme-default waiting" fill="#ffffff" stroke="none" transform="translate(341,542)"><g class="scalable waiting" transform="scale(0.7523077157827524,1.2444445292154949)"><polygon class="element waiting" id="v-2270" fill="#BDBDBD" height="36" points="0,18 15,0 115,0 130,18 115,36 15,36" stroke="black" stroke-width="2" vector-effect="non-scaling-stroke" width="130"/></g><text class="content waiting" id="v-2271" font-size="12" xml:space="preserve" y="0.8em" font-weight="bold" text-anchor="middle" fill="#000000" font-family="Arial, helvetica, sans-serif" transform="matrix(1,0,0,1,48.900001525878906,4.800000190734863)"><tspan class="v-line waiting" dy="0">Alamacenar</tspan><tspan dy="1em" x="0" class="v-line waiting">información</tspan><tspan dy="1em" x="0" class="v-line waiting">tutor</tspan></text></g><g model-id="e17dadb3-f2cf-42c4-bba2-7ea16ae84899" data-type="Task" id="j_399" class="joint-cell joint-type-task joint-element joint-theme-default waiting" fill="#ffffff" stroke="none" transform="translate(406,483)"><g class="scalable waiting" transform="scale(0.7676923311673678,1.3000000847710504)"><polygon class="element waiting" id="v-2284" fill="#BDBDBD" height="36" points="0,18 15,0 115,0 130,18 115,36 15,36" stroke="black" stroke-width="2" vector-effect="non-scaling-stroke" width="130"/></g><text class="content waiting" id="v-2285" font-size="12" xml:space="preserve" y="0.8em" font-weight="bold" text-anchor="middle" fill="#000000" font-family="Arial, helvetica, sans-serif" transform="matrix(1,0,0,1,49.900001525878906,5.800000190734863)"><tspan class="v-line waiting" dy="0">Alamacenar</tspan><tspan dy="1em" x="0" class="v-line waiting">tolerancia para</tspan><tspan dy="1em" x="0" class="v-line waiting">atrasos</tspan></text></g><g model-id="dd1c74a3-7557-4521-8a6d-d586c354109a" data-type="QualificationLink" id="j_402" class="joint-cell joint-type-qualificationlink joint-link joint-theme-default waiting"><path class="c-connection-wrap waiting" joint-selector="connection-wrap" id="v-2299" fill="none" stroke="rgba(190, 190, 190, 0)" stroke-linecap="round" stroke-width="30" d="M 642.97 288.44 L 361 250.55"/><path joint-selector="line" id="v-2298" fill="none" stroke="black" stroke-dasharray="10,5" stroke-width="1" d="M 642.97 288.44 L 361 250.55" class="waiting"/></g><g model-id="6149010a-b417-48a5-9d32-d86e749e09d8" data-type="QualificationLink" id="j_403" class="joint-cell joint-type-qualificationlink joint-link joint-theme-default waiting"><path class="c-connection-wrap waiting" joint-selector="connection-wrap" id="v-2301" fill="none" stroke="rgba(190, 190, 190, 0)" stroke-linecap="round" stroke-width="30" d="M 635.97 222.78 L 361 241.44"/><path joint-selector="line" id="v-2300" fill="none" stroke="black" stroke-dasharray="10,5" stroke-width="1" d="M 635.97 222.78 L 361 241.44" class="waiting"/></g><g model-id="bd44c476-36ea-4429-b47c-4a2e738981ba" data-type="QualificationLink" id="j_404" class="joint-cell joint-type-qualificationlink joint-link joint-theme-default waiting"><path class="c-connection-wrap waiting" joint-selector="connection-wrap" id="v-2303" fill="none" stroke="rgba(190, 190, 190, 0)" stroke-linecap="round" stroke-width="30" d="M 661.89 266.99 L 575.6 176"/><path joint-selector="line" id="v-2302" fill="none" stroke="black" stroke-dasharray="10,5" stroke-width="1" d="M 661.89 266.99 L 575.6 176" class="waiting"/></g><g model-id="e47a4257-eda2-4f50-b7ab-3f5b444c0685" data-type="QualificationLink" id="j_405" class="joint-cell joint-type-qualificationlink joint-link joint-theme-default waiting"><path class="c-connection-wrap waiting" joint-selector="connection-wrap" id="v-2305" fill="none" stroke="transparent" stroke-linecap="round" stroke-width="20" d="M 635.97 194.3 L 596.62 176"/><path joint-selector="line" id="v-2304" fill="none" stroke="black" stroke-dasharray="10,5" stroke-width="1" d="M 635.97 194.3 L 596.62 176" class="waiting"/></g><g model-id="a0d6e9d5-d355-4fdc-85ee-ac0875f39925" data-type="QualificationLink" id="j_406" class="joint-cell joint-type-qualificationlink joint-link joint-theme-default waiting"><path class="c-connection-wrap waiting" joint-selector="connection-wrap" id="v-2307" fill="none" stroke="rgba(190, 190, 190, 0)" stroke-linecap="round" stroke-width="30" d="M 271.07 190.99 L 301.3 227"/><path joint-selector="line" id="v-2306" fill="none" stroke="black" stroke-dasharray="10,5" stroke-width="1" d="M 271.07 190.99 L 301.3 227" class="waiting"/></g><g model-id="0e1d7d3a-5c10-44e8-8651-c3b9e6c66d02" data-type="QualificationLink" id="j_407" class="joint-cell joint-type-qualificationlink joint-link joint-theme-default waiting"><path class="c-connection-wrap waiting" joint-selector="connection-wrap" id="v-2309" fill="none" stroke="rgba(190, 190, 190, 0)" stroke-linecap="round" stroke-width="30" d="M 231.8 242.11 L 271 243.22"/><path joint-selector="line" id="v-2308" fill="none" stroke="black" stroke-dasharray="10,5" stroke-width="1" d="M 231.8 242.11 L 271 243.22" class="waiting"/></g><g model-id="a92989ae-91dc-4791-a97b-6ac29b2e58da" data-type="AndRefinementLink" id="j_408" class="joint-cell joint-type-andrefinementlink joint-link joint-theme-default waiting"><path class="c-connection-wrap waiting" joint-selector="connection-wrap" id="v-2311" fill="none" stroke="rgba(190, 190, 190, 0)" stroke-linecap="round" stroke-width="30" d="M 240.61 346 L 303 262"/><path joint-selector="line" id="v-2310" fill="none" stroke="black" stroke-width="1" d="M 240.61 346 L 303 262" marker-end="url(#v-2-479506292)" class="waiting"/></g><g model-id="0b4906d2-00c9-4a83-bf1a-13cb887005d5" data-type="AndRefinementLink" id="j_409" class="joint-cell joint-type-andrefinementlink joint-link joint-theme-default waiting"><path class="c-connection-wrap waiting" joint-selector="connection-wrap" id="v-2313" fill="none" stroke="rgba(190, 190, 190, 0)" stroke-linecap="round" stroke-width="30" d="M 336.64 359 L 319.15 262"/><path joint-selector="line" id="v-2312" fill="none" stroke="black" stroke-width="1" d="M 336.64 359 L 319.15 262" marker-end="url(#v-2-479506292)" class="waiting"/></g><g model-id="4238c8cb-ebed-41f8-ab4b-39e52630a0d4" data-type="AndRefinementLink" id="j_410" class="joint-cell joint-type-andrefinementlink joint-link joint-theme-default waiting"><path class="c-connection-wrap waiting" joint-selector="connection-wrap" id="v-2315" fill="none" stroke="rgba(190, 190, 190, 0)" stroke-linecap="round" stroke-width="30" d="M 432.39 371 L 332.1 262"/><path joint-selector="line" id="v-2314" fill="none" stroke="black" stroke-width="1" d="M 432.39 371 L 332.1 262" marker-end="url(#v-2-479506292)" class="waiting"/></g><g model-id="24455ec9-8163-475e-8532-aa9f9a9ea590" data-type="AndRefinementLink" id="j_411" class="joint-cell joint-type-andrefinementlink joint-link joint-theme-default waiting"><path class="c-connection-wrap waiting" joint-selector="connection-wrap" id="v-2317" fill="none" stroke="rgba(190, 190, 190, 0)" stroke-linecap="round" stroke-width="30" d="M 519 340.2 L 353.12 262"/><path joint-selector="line" id="v-2316" fill="none" stroke="black" stroke-width="1" d="M 519 340.2 L 353.12 262" marker-end="url(#v-2-479506292)" class="waiting"/></g><g model-id="e37ff585-f45e-430b-baa5-2a23ac577f15" data-type="OrRefinementLink" id="j_412" class="joint-cell joint-type-orrefinementlink joint-link joint-theme-default waiting"><path class="c-connection-wrap waiting" joint-selector="connection-wrap" id="v-2319" fill="none" stroke="rgba(190, 190, 190, 0)" stroke-linecap="round" stroke-width="30" d="M 333.6 227 L 390.61 170.3"/><path joint-selector="line" id="v-2318" fill="none" stroke="black" stroke-width="1" d="M 333.6 227 L 390.61 170.3" marker-end="url(#v-2-933205445)" class="waiting"/></g><g model-id="a92894f3-d860-42c7-83d3-5c474c160ba1" data-type="OrRefinementLink" id="j_413" class="joint-cell joint-type-orrefinementlink joint-link joint-theme-default waiting"><path class="c-connection-wrap waiting" joint-selector="connection-wrap" id="v-2321" fill="none" stroke="transparent" stroke-linecap="round" stroke-width="20" d="M 514 153.96 L 476.8 150.2"/><path joint-selector="line" id="v-2320" fill="none" stroke="black" stroke-width="1" d="M 514 153.96 L 476.8 150.2" marker-end="url(#v-2-933205445)" class="waiting"/></g></g><g class="joint-front-layer waiting" joint-selector="front"/><g class="joint-tools-layer waiting" joint-selector="tools"><g class="joint-tools joint-theme-default waiting"><g class="joint-tool joint-theme-default waiting" data-tool-name="vertices" model-id="75cced13-b980-4c52-b55b-769f310cc7c9" style="display: none;"><path fill="none" stroke="transparent" stroke-width="10" cursor="cell" class="joint-vertices-path waiting" joint-selector="connection" d="M 493.05 430.8 L 552.59 484.5"/></g></g><g class="joint-tools joint-theme-default waiting"><g class="joint-tool joint-theme-default waiting" data-tool-name="vertices" model-id="c15e39bc-4f92-46e9-9e45-a72ca28b6828" style="display: none;"><path fill="none" stroke="transparent" stroke-width="10" cursor="cell" class="joint-vertices-path waiting" joint-selector="connection" d="M 587.7 510.5 L 725.4 597"/></g></g><g class="joint-tools joint-theme-default waiting"><g class="joint-tool joint-theme-default waiting" data-tool-name="vertices" model-id="fcfb99aa-6213-48d6-a17c-c0def5d09409" style="display: none;"><path fill="none" stroke="transparent" stroke-width="10" cursor="cell" class="joint-vertices-path waiting" joint-selector="connection" d="M 409.5 689.04 L 509.67 678.57"/></g></g><g class="joint-tools joint-theme-default waiting"><g class="joint-tool joint-theme-default waiting" data-tool-name="vertices" model-id="256ac30b-ce15-4c68-96bf-f7f07ebbc7ab" style="display: none;"><path fill="none" stroke="transparent" stroke-width="10" cursor="cell" class="joint-vertices-path waiting" joint-selector="connection" d="M 568.33 675.29 L 700 674.34"/></g></g><g class="joint-tools joint-theme-default waiting"><g class="joint-tool joint-theme-default waiting" data-tool-name="vertices" model-id="810755e9-9696-4a51-ba39-2f3e96f782bb" style="display: none;"><path fill="none" stroke="transparent" stroke-width="10" cursor="cell" class="joint-vertices-path waiting" joint-selector="connection" d="M 295 734.92 L 516 748.53"/></g></g><g class="joint-tools joint-theme-default waiting"><g class="joint-tool joint-theme-default waiting" data-tool-name="vertices" model-id="738b3bf1-0449-4f55-a216-737f8c2f0b35" style="display: none;"><path fill="none" stroke="transparent" stroke-width="10" cursor="cell" class="joint-vertices-path waiting" joint-selector="connection" d="M 580 738.23 L 700.56 692"/></g></g><g class="joint-tools joint-theme-default waiting"><g class="joint-tool joint-theme-default waiting" data-tool-name="vertices" model-id="3eb28506-be74-4ebe-86dc-2f9514856b5d" style="display: none;"><path fill="none" stroke="transparent" stroke-width="10" cursor="cell" class="joint-vertices-path waiting" joint-selector="connection" d="M 245.6 405.8 L 372.61 545.4"/></g></g><g class="joint-tools joint-theme-default waiting"><g class="joint-tool joint-theme-default waiting" data-tool-name="vertices" model-id="5231431a-b919-4d2d-9054-4cb5be095efc" style="display: none;"><path fill="none" stroke="transparent" stroke-width="10" cursor="cell" class="joint-vertices-path waiting" joint-selector="connection" d="M 424.23 563.8 L 733 558.39"/></g></g><g class="joint-tools joint-theme-default waiting"><g class="joint-tool joint-theme-default waiting" data-tool-name="vertices" model-id="729f00c1-30e5-43f9-8772-e3fce51169de" style="display: none;"><path fill="none" stroke="transparent" stroke-width="10" cursor="cell" class="joint-vertices-path waiting" joint-selector="connection" d="M 366.38 411.8 L 437.92 487.4"/></g></g><g class="joint-tools joint-theme-default waiting"><g class="joint-tool joint-theme-default waiting" data-tool-name="vertices" model-id="62afd2d6-e973-4d85-8557-124d4b0368e6" style="display: none;"><path fill="none" stroke="transparent" stroke-width="10" cursor="cell" class="joint-vertices-path waiting" joint-selector="connection" d="M 498.57 512.92 L 733 548.74"/></g></g><g class="joint-tools joint-theme-default waiting"><g class="joint-tool joint-theme-default waiting" data-tool-name="vertices" model-id="dd1c74a3-7557-4521-8a6d-d586c354109a" style="display: none;"><path fill="none" stroke="transparent" stroke-width="10" cursor="cell" class="joint-vertices-path waiting" joint-selector="connection" d="M 642.97 288.44 L 361 250.55"/></g></g><g class="joint-tools joint-theme-default waiting"><g class="joint-tool joint-theme-default waiting" data-tool-name="vertices" model-id="6149010a-b417-48a5-9d32-d86e749e09d8" style="display: none;"><path fill="none" stroke="transparent" stroke-width="10" cursor="cell" class="joint-vertices-path waiting" joint-selector="connection" d="M 635.97 222.78 L 361 241.44"/></g></g><g class="joint-tools joint-theme-default waiting"><g class="joint-tool joint-theme-default waiting" data-tool-name="vertices" model-id="bd44c476-36ea-4429-b47c-4a2e738981ba" style="display: none;"><path fill="none" stroke="transparent" stroke-width="10" cursor="cell" class="joint-vertices-path waiting" joint-selector="connection" d="M 661.89 266.99 L 575.6 176"/></g></g><g class="joint-tools joint-theme-default waiting"><g class="joint-tool joint-theme-default waiting" data-tool-name="vertices" model-id="e47a4257-eda2-4f50-b7ab-3f5b444c0685" style="display: none;"><path fill="none" stroke="transparent" stroke-width="10" cursor="cell" class="joint-vertices-path waiting" joint-selector="connection" d="M 635.97 195.3 L 596.62 177"/></g></g><g class="joint-tools joint-theme-default waiting"><g class="joint-tool joint-theme-default waiting" data-tool-name="vertices" model-id="a0d6e9d5-d355-4fdc-85ee-ac0875f39925" style="display: none;"><path fill="none" stroke="transparent" stroke-width="10" cursor="cell" class="joint-vertices-path waiting" joint-selector="connection" d="M 271.07 190.99 L 301.3 227"/></g></g><g class="joint-tools joint-theme-default waiting"><g class="joint-tool joint-theme-default waiting" data-tool-name="vertices" model-id="0e1d7d3a-5c10-44e8-8651-c3b9e6c66d02" style="display: none;"><path fill="none" stroke="transparent" stroke-width="10" cursor="cell" class="joint-vertices-path waiting" joint-selector="connection" d="M 231.8 242.11 L 271 243.22"/></g></g><g class="joint-tools joint-theme-default waiting"><g class="joint-tool joint-theme-default waiting" data-tool-name="vertices" model-id="a92989ae-91dc-4791-a97b-6ac29b2e58da" style="display: none;"><path fill="none" stroke="transparent" stroke-width="10" cursor="cell" class="joint-vertices-path waiting" joint-selector="connection" d="M 240.61 346 L 303 262"/></g></g><g class="joint-tools joint-theme-default waiting"><g class="joint-tool joint-theme-default waiting" data-tool-name="vertices" model-id="0b4906d2-00c9-4a83-bf1a-13cb887005d5" style="display: none;"><path fill="none" stroke="transparent" stroke-width="10" cursor="cell" class="joint-vertices-path waiting" joint-selector="connection" d="M 336.64 359 L 319.15 262"/></g></g><g class="joint-tools joint-theme-default waiting"><g class="joint-tool joint-theme-default waiting" data-tool-name="vertices" model-id="4238c8cb-ebed-41f8-ab4b-39e52630a0d4" style="display: none;"><path fill="none" stroke="transparent" stroke-width="10" cursor="cell" class="joint-vertices-path waiting" joint-selector="connection" d="M 432.39 371 L 332.1 262"/></g></g><g class="joint-tools joint-theme-default waiting"><g class="joint-tool joint-theme-default waiting" data-tool-name="vertices" model-id="24455ec9-8163-475e-8532-aa9f9a9ea590" style="display: none;"><path fill="none" stroke="transparent" stroke-width="10" cursor="cell" class="joint-vertices-path waiting" joint-selector="connection" d="M 519 340.2 L 353.12 262"/></g></g><g class="joint-tools joint-theme-default waiting"><g class="joint-tool joint-theme-default waiting" data-tool-name="vertices" model-id="e37ff585-f45e-430b-baa5-2a23ac577f15" style="display: none;"><path fill="none" stroke="transparent" stroke-width="10" cursor="cell" class="joint-vertices-path waiting" joint-selector="connection" d="M 333.6 227 L 390.61 170.3"/></g></g><g class="joint-tools joint-theme-default waiting"><g class="joint-tool joint-theme-default waiting" data-tool-name="vertices" model-id="a92894f3-d860-42c7-83d3-5c474c160ba1" style="display: none;"><path fill="none" stroke="transparent" stroke-width="10" cursor="cell" class="joint-vertices-path waiting" joint-selector="connection" d="M 514 154.96 L 476.8 151.2"/></g></g></g></g></svg>